<svg width="41" height="40" viewBox="0 0 41 40" fill="none" xmlns="http://www.w3.org/2000/svg">
<path fill-rule="evenodd" clip-rule="evenodd" d="M17.9558 28.1524V28.38C18.0786 28.9013 18.2418 29.4124 18.4436 29.9085H6.29726C5.92058 29.9042 5.56079 29.7516 5.29595 29.4837C5.03112 29.2158 4.88259 28.8543 4.88262 28.4775V6.3475C4.88262 5.97231 5.03166 5.61249 5.29695 5.34719C5.56225 5.0819 5.92207 4.93286 6.29726 4.93286H28.5575C28.9341 4.93283 29.2956 5.08136 29.5635 5.3462C29.8314 5.61103 29.984 5.97082 29.9883 6.3475V9.46945C29.9871 9.55812 29.9668 9.6455 29.9288 9.72562C29.8908 9.80576 29.836 9.87677 29.7682 9.93385C29.7003 9.9909 29.6209 10.0328 29.5354 10.0564C29.4499 10.0801 29.3604 10.085 29.2729 10.0711C28.4865 9.93164 27.6761 10.0695 26.9802 10.4613C26.1768 10.9073 25.51 11.5638 25.0516 12.3602C24.5933 13.1567 24.3606 14.0629 24.3785 14.9816V16.0223C22.7892 16.6859 21.3835 17.7234 20.281 19.0467H12.1509C11.9513 19.0253 11.7495 19.0462 11.5584 19.108C11.3674 19.1697 11.1915 19.271 11.0421 19.4051C10.8929 19.5394 10.7735 19.7035 10.6917 19.8868C10.6099 20.0702 10.5677 20.2687 10.5677 20.4694C10.5677 20.6702 10.6099 20.8688 10.6917 21.0521C10.7735 21.2354 10.8929 21.3996 11.0421 21.5337C11.1915 21.6679 11.3674 21.7691 11.5584 21.8309C11.7495 21.8928 11.9513 21.9135 12.1509 21.8922H18.655C18.0811 23.2109 17.7822 24.6329 17.777 26.0711C17.7682 26.1901 17.7682 26.3097 17.777 26.4288C17.7613 26.5584 17.7613 26.6894 17.777 26.819C17.8088 27.2668 17.8685 27.7121 17.9558 28.1524ZM19.6956 13.4369H11.7282C11.1753 13.4369 10.6712 14.0548 10.6712 14.8516C10.6712 15.6483 11.1428 16.2824 11.7282 16.2824H19.6956C20.281 16.2824 20.7363 15.6321 20.7363 14.8516C20.7363 14.0711 20.281 13.4369 19.6956 13.4369ZM34.2809 20.2665C33.9787 19.9865 33.6165 19.7794 33.2219 19.661C32.8273 19.5426 32.4109 19.5162 32.0045 19.5836C31.7772 19.6009 31.5489 19.6009 31.3216 19.5836C30.7525 19.5836 30.0208 19.3234 30.037 18.7868V14.2828C29.9994 13.9317 29.8334 13.6068 29.5706 13.3708C29.308 13.1348 28.9674 13.0042 28.6142 13.0042C28.2611 13.0042 27.9205 13.1348 27.6579 13.3708C27.3951 13.6068 27.2291 13.9317 27.1915 14.2828V18.1039C25.3219 18.4381 23.6284 19.4163 22.4048 20.8687C21.1811 22.321 20.5044 24.156 20.4923 26.0551V26.3153C20.4842 26.4127 20.4842 26.5106 20.4923 26.608C20.5095 26.9362 20.553 27.2624 20.6223 27.5836V27.7462C20.8831 28.9898 21.4318 30.1551 22.2243 31.1484C23.0168 32.1417 24.0311 32.9354 25.1859 33.4658C26.3406 33.9963 27.6035 34.2486 28.8735 34.2026C30.1433 34.1567 31.3848 33.8137 32.4981 33.2012C33.6115 32.5888 34.5658 31.7238 35.2845 30.6758C36.0031 29.6279 36.4661 28.426 36.6363 27.1667C36.8064 25.9075 36.6791 24.6258 36.2644 23.4247C35.8498 22.2235 35.1592 21.1363 34.2484 20.2502L34.2809 20.2665ZM35.3709 15.1766C35.3635 15.0308 35.3033 14.8927 35.2017 14.788C35.0999 14.6833 34.9636 14.6191 34.8181 14.6075C34.3228 14.5043 33.8115 14.5044 33.3163 14.6079C32.8211 14.7115 32.3525 14.9161 31.9401 15.2091C31.6382 15.5009 31.4012 15.8529 31.2443 16.2423C31.0874 16.6317 31.0142 17.0497 31.0295 17.4692V17.6482V17.8107C31.0489 18.0297 31.1467 18.2343 31.3052 18.3867C31.4635 18.5391 31.6717 18.629 31.8913 18.64C32.0861 18.6553 32.2819 18.6553 32.4767 18.64C33.219 18.672 33.9438 18.4089 34.4929 17.9083C34.8142 17.5346 35.0575 17.1005 35.2082 16.6313C35.359 16.1621 35.4143 15.6675 35.3709 15.1766Z" fill="white"/>
</svg>
