<svg width="200" height="32" viewBox="0 0 200 32" fill="none" xmlns="http://www.w3.org/2000/svg">
<g clip-path="url(#clip0_5_38)">
<g clip-path="url(#clip1_5_38)">
<path d="M26.2457 0.865479L29.6436 11.3232H40.6395L31.7436 17.7863L35.1415 28.2441L26.2457 21.7808L17.3498 28.2441L20.7477 17.7863L11.8518 11.3232H22.8477L26.2457 0.865479Z" fill="#B7CDD4"/>
<path d="M63.1232 0.865479L66.5212 11.3232H77.5172L68.6211 17.7863L72.0192 28.2441L63.1232 21.7808L54.2274 28.2441L57.6252 17.7863L48.7294 11.3232H59.7253L63.1232 0.865479Z" fill="#B7CDD4"/>
<path d="M100 0.865479L103.398 11.3232H114.394L105.498 17.7863L108.896 28.2441L100 21.7808L91.1042 28.2441L94.502 17.7863L85.6062 11.3232H96.6021L100 0.865479Z" fill="#B7CDD4"/>
<path d="M136.877 0.865479L140.275 11.3232H151.271L142.375 17.7863L145.773 28.2441L136.877 21.7808L127.981 28.2441L131.379 17.7863L122.483 11.3232H133.479L136.877 0.865479Z" fill="#B7CDD4"/>
<path d="M173.754 0.865479L177.152 11.3232H188.148L179.252 17.7863L182.65 28.2441L173.754 21.7808L164.858 28.2441L168.256 17.7863L159.361 11.3232H170.356L173.754 0.865479Z" fill="#B7CDD4"/>
</g>
</g>
<defs>
<clipPath id="clip0_5_38">
<rect width="200" height="32" fill="white"/>
</clipPath>
<clipPath id="clip1_5_38">
<rect width="177.778" height="32" fill="white" transform="translate(11.1111)"/>
</clipPath>
</defs>
</svg>
