<svg width="394" height="136" viewBox="0 0 394 136" fill="none" xmlns="http://www.w3.org/2000/svg">
<g filter="url(#filter0_d_5_11)">
<path d="M23.28 48.012C17.392 48.012 12.7627 46.3267 9.392 42.956C6.02133 39.5853 4.336 34.6573 4.336 28.172V2.7H10.736V27.916C10.736 32.908 11.824 36.556 14 38.86C16.2187 41.164 19.3333 42.316 23.344 42.316C27.3973 42.316 30.512 41.164 32.688 38.86C34.9067 36.556 36.016 32.908 36.016 27.916V2.7H42.224V28.172C42.224 34.6573 40.5387 39.5853 37.168 42.956C33.84 46.3267 29.2107 48.012 23.28 48.012ZM72.561 13.26C75.3343 13.26 77.7663 13.7933 79.857 14.86C81.9903 15.9267 83.6543 17.548 84.849 19.724C86.0437 21.9 86.641 24.652 86.641 27.98V47.5H80.497V28.684C80.497 25.3987 79.6863 22.924 78.065 21.26C76.4863 19.596 74.2463 18.764 71.345 18.764C69.169 18.764 67.2703 19.1907 65.649 20.044C64.0277 20.8973 62.769 22.156 61.873 23.82C61.0197 25.484 60.593 27.5533 60.593 30.028V47.5H54.449V13.58H60.337V22.732L59.377 20.3C60.4863 18.0813 62.193 16.3533 64.497 15.116C66.801 13.8787 69.489 13.26 72.561 13.26ZM98.0115 47.5V0.0119972H104.156V47.5H98.0115ZM130.415 47.884C127.001 47.884 123.972 47.1373 121.327 45.644C118.681 44.1507 116.591 42.1027 115.055 39.5C113.519 36.8547 112.751 33.868 112.751 30.54C112.751 27.1693 113.519 24.1827 115.055 21.58C116.591 18.9773 118.681 16.9507 121.327 15.5C123.972 14.0067 127.001 13.26 130.415 13.26C133.785 13.26 136.793 14.0067 139.439 15.5C142.127 16.9507 144.217 18.9773 145.711 21.58C147.247 24.14 148.015 27.1267 148.015 30.54C148.015 33.9107 147.247 36.8973 145.711 39.5C144.217 42.1027 142.127 44.1507 139.439 45.644C136.793 47.1373 133.785 47.884 130.415 47.884ZM130.415 42.508C132.591 42.508 134.532 42.0173 136.239 41.036C137.988 40.0547 139.353 38.668 140.335 36.876C141.316 35.0413 141.807 32.9293 141.807 30.54C141.807 28.108 141.316 26.0173 140.335 24.268C139.353 22.476 137.988 21.0893 136.239 20.108C134.532 19.1267 132.591 18.636 130.415 18.636C128.239 18.636 126.297 19.1267 124.591 20.108C122.884 21.0893 121.519 22.476 120.495 24.268C119.471 26.0173 118.959 28.108 118.959 30.54C118.959 32.9293 119.471 35.0413 120.495 36.876C121.519 38.668 122.884 40.0547 124.591 41.036C126.297 42.0173 128.239 42.508 130.415 42.508ZM171.296 47.884C167.84 47.884 164.746 47.1373 162.016 45.644C159.328 44.1507 157.216 42.1027 155.68 39.5C154.144 36.8973 153.376 33.9107 153.376 30.54C153.376 27.1693 154.144 24.1827 155.68 21.58C157.216 18.9773 159.328 16.9507 162.016 15.5C164.746 14.0067 167.84 13.26 171.296 13.26C174.368 13.26 177.098 13.8787 179.488 15.116C181.92 16.3107 183.797 18.1027 185.12 20.492L180.448 23.5C179.338 21.836 177.973 20.62 176.352 19.852C174.773 19.0413 173.066 18.636 171.232 18.636C169.013 18.636 167.029 19.1267 165.28 20.108C163.53 21.0893 162.144 22.476 161.12 24.268C160.096 26.0173 159.584 28.108 159.584 30.54C159.584 32.972 160.096 35.084 161.12 36.876C162.144 38.668 163.53 40.0547 165.28 41.036C167.029 42.0173 169.013 42.508 171.232 42.508C173.066 42.508 174.773 42.124 176.352 41.356C177.973 40.5453 179.338 39.308 180.448 37.644L185.12 40.588C183.797 42.9347 181.92 44.748 179.488 46.028C177.098 47.2653 174.368 47.884 171.296 47.884ZM197.629 39.308L197.757 31.436L217.277 13.58H224.701L209.725 28.3L206.397 31.116L197.629 39.308ZM192.637 47.5V0.0119972H198.781V47.5H192.637ZM218.557 47.5L205.245 30.988L209.213 26.06L226.109 47.5H218.557ZM260.974 47.5V30.348L262.446 34.316L243.181 2.7H250.03L266.222 29.388H262.51L278.766 2.7H285.102L265.902 34.316L267.31 30.348V47.5H260.974ZM301.415 47.884C298.001 47.884 294.972 47.1373 292.327 45.644C289.681 44.1507 287.591 42.1027 286.055 39.5C284.519 36.8547 283.751 33.868 283.751 30.54C283.751 27.1693 284.519 24.1827 286.055 21.58C287.591 18.9773 289.681 16.9507 292.327 15.5C294.972 14.0067 298.001 13.26 301.415 13.26C304.785 13.26 307.793 14.0067 310.439 15.5C313.127 16.9507 315.217 18.9773 316.711 21.58C318.247 24.14 319.015 27.1267 319.015 30.54C319.015 33.9107 318.247 36.8973 316.711 39.5C315.217 42.1027 313.127 44.1507 310.439 45.644C307.793 47.1373 304.785 47.884 301.415 47.884ZM301.415 42.508C303.591 42.508 305.532 42.0173 307.239 41.036C308.988 40.0547 310.353 38.668 311.335 36.876C312.316 35.0413 312.807 32.9293 312.807 30.54C312.807 28.108 312.316 26.0173 311.335 24.268C310.353 22.476 308.988 21.0893 307.239 20.108C305.532 19.1267 303.591 18.636 301.415 18.636C299.239 18.636 297.297 19.1267 295.591 20.108C293.884 21.0893 292.519 22.476 291.495 24.268C290.471 26.0173 289.959 28.108 289.959 30.54C289.959 32.9293 290.471 35.0413 291.495 36.876C292.519 38.668 293.884 40.0547 295.591 41.036C297.297 42.0173 299.239 42.508 301.415 42.508ZM341.784 47.884C338.882 47.884 336.322 47.3507 334.104 46.284C331.928 45.2173 330.221 43.596 328.984 41.42C327.789 39.2013 327.192 36.428 327.192 33.1V13.58H333.336V32.396C333.336 35.724 334.125 38.22 335.704 39.884C337.325 41.548 339.586 42.38 342.488 42.38C344.621 42.38 346.477 41.9533 348.056 41.1C349.634 40.204 350.85 38.924 351.704 37.26C352.557 35.5533 352.984 33.5053 352.984 31.116V13.58H359.128V47.5H353.304V38.348L354.264 40.78C353.154 43.0413 351.49 44.7907 349.272 46.028C347.053 47.2653 344.557 47.884 341.784 47.884ZM370.824 47.5V13.58H376.712V22.796L376.136 20.492C377.075 18.1453 378.653 16.3533 380.872 15.116C383.091 13.8787 385.821 13.26 389.064 13.26V19.212C388.808 19.1693 388.552 19.148 388.296 19.148C388.083 19.148 387.869 19.148 387.656 19.148C384.371 19.148 381.768 20.1293 379.848 22.092C377.928 24.0547 376.968 26.892 376.968 30.604V47.5H370.824ZM4.72 127.5V82.7H22.192C26.1173 82.7 29.4667 83.3187 32.24 84.556C35.0133 85.7933 37.1467 87.5853 38.64 89.932C40.1333 92.2787 40.88 95.0733 40.88 98.316C40.88 101.559 40.1333 104.353 38.64 106.7C37.1467 109.004 35.0133 110.796 32.24 112.076C29.4667 113.313 26.1173 113.932 22.192 113.932H8.24L11.12 110.924V127.5H4.72ZM11.12 111.564L8.24 108.364H22C26.096 108.364 29.1893 107.489 31.28 105.74C33.4133 103.991 34.48 101.516 34.48 98.316C34.48 95.116 33.4133 92.6413 31.28 90.892C29.1893 89.1427 26.096 88.268 22 88.268H8.24L11.12 85.068V111.564ZM63.7895 127.884C60.3762 127.884 57.3468 127.137 54.7015 125.644C52.0562 124.151 49.9655 122.103 48.4295 119.5C46.8935 116.855 46.1255 113.868 46.1255 110.54C46.1255 107.169 46.8935 104.183 48.4295 101.58C49.9655 98.9773 52.0562 96.9507 54.7015 95.5C57.3468 94.0067 60.3762 93.26 63.7895 93.26C67.1602 93.26 70.1682 94.0067 72.8135 95.5C75.5015 96.9507 77.5922 98.9773 79.0855 101.58C80.6215 104.14 81.3895 107.127 81.3895 110.54C81.3895 113.911 80.6215 116.897 79.0855 119.5C77.5922 122.103 75.5015 124.151 72.8135 125.644C70.1682 127.137 67.1602 127.884 63.7895 127.884ZM63.7895 122.508C65.9655 122.508 67.9068 122.017 69.6135 121.036C71.3628 120.055 72.7282 118.668 73.7095 116.876C74.6908 115.041 75.1815 112.929 75.1815 110.54C75.1815 108.108 74.6908 106.017 73.7095 104.268C72.7282 102.476 71.3628 101.089 69.6135 100.108C67.9068 99.1267 65.9655 98.636 63.7895 98.636C61.6135 98.636 59.6722 99.1267 57.9655 100.108C56.2588 101.089 54.8935 102.476 53.8695 104.268C52.8455 106.017 52.3335 108.108 52.3335 110.54C52.3335 112.929 52.8455 115.041 53.8695 116.876C54.8935 118.668 56.2588 120.055 57.9655 121.036C59.6722 122.017 61.6135 122.508 63.7895 122.508ZM101.535 127.884C98.1212 127.884 95.4758 126.967 93.5985 125.132C91.7212 123.297 90.7825 120.673 90.7825 117.26V86.156H96.9265V117.004C96.9265 118.839 97.3745 120.247 98.2705 121.228C99.2092 122.209 100.532 122.7 102.239 122.7C104.159 122.7 105.759 122.167 107.039 121.1L108.959 125.516C108.02 126.327 106.889 126.924 105.567 127.308C104.287 127.692 102.943 127.884 101.535 127.884ZM85.0225 98.636V93.58H106.655V98.636H85.0225ZM130.366 127.884C126.739 127.884 123.539 127.137 120.766 125.644C118.035 124.151 115.902 122.103 114.366 119.5C112.872 116.897 112.126 113.911 112.126 110.54C112.126 107.169 112.851 104.183 114.302 101.58C115.795 98.9773 117.822 96.9507 120.382 95.5C122.984 94.0067 125.907 93.26 129.15 93.26C132.435 93.26 135.336 93.9853 137.854 95.436C140.371 96.8867 142.334 98.9347 143.742 101.58C145.192 104.183 145.918 107.233 145.918 110.732C145.918 110.988 145.896 111.287 145.854 111.628C145.854 111.969 145.832 112.289 145.79 112.588H116.926V108.172H142.59L140.094 109.708C140.136 107.532 139.688 105.591 138.75 103.884C137.811 102.177 136.51 100.855 134.846 99.916C133.224 98.9347 131.326 98.444 129.15 98.444C127.016 98.444 125.118 98.9347 123.454 99.916C121.79 100.855 120.488 102.199 119.55 103.948C118.611 105.655 118.142 107.617 118.142 109.836V110.86C118.142 113.121 118.654 115.148 119.678 116.94C120.744 118.689 122.216 120.055 124.094 121.036C125.971 122.017 128.126 122.508 130.558 122.508C132.563 122.508 134.376 122.167 135.998 121.484C137.662 120.801 139.112 119.777 140.35 118.412L143.742 122.38C142.206 124.172 140.286 125.537 137.982 126.476C135.72 127.415 133.182 127.884 130.366 127.884ZM172.561 93.26C175.334 93.26 177.766 93.7933 179.857 94.86C181.99 95.9267 183.654 97.548 184.849 99.724C186.044 101.9 186.641 104.652 186.641 107.98V127.5H180.497V108.684C180.497 105.399 179.686 102.924 178.065 101.26C176.486 99.596 174.246 98.764 171.345 98.764C169.169 98.764 167.27 99.1907 165.649 100.044C164.028 100.897 162.769 102.156 161.873 103.82C161.02 105.484 160.593 107.553 160.593 110.028V127.5H154.449V93.58H160.337V102.732L159.377 100.3C160.486 98.0813 162.193 96.3533 164.497 95.116C166.801 93.8787 169.489 93.26 172.561 93.26ZM209.66 127.884C206.246 127.884 203.601 126.967 201.724 125.132C199.846 123.297 198.908 120.673 198.908 117.26V86.156H205.052V117.004C205.052 118.839 205.5 120.247 206.396 121.228C207.334 122.209 208.657 122.7 210.364 122.7C212.284 122.7 213.884 122.167 215.164 121.1L217.084 125.516C216.145 126.327 215.014 126.924 213.692 127.308C212.412 127.692 211.068 127.884 209.66 127.884ZM193.148 98.636V93.58H214.78V98.636H193.148ZM224.512 127.5V93.58H230.656V127.5H224.512ZM227.584 87.052C226.389 87.052 225.386 86.668 224.576 85.9C223.808 85.132 223.424 84.1933 223.424 83.084C223.424 81.932 223.808 80.972 224.576 80.204C225.386 79.436 226.389 79.052 227.584 79.052C228.778 79.052 229.76 79.436 230.528 80.204C231.338 80.9293 231.744 81.8467 231.744 82.956C231.744 84.108 231.36 85.0893 230.592 85.9C229.824 86.668 228.821 87.052 227.584 87.052ZM263.443 127.5V120.332L263.123 118.988V106.764C263.123 104.161 262.355 102.156 260.819 100.748C259.325 99.2973 257.064 98.572 254.035 98.572C252.029 98.572 250.067 98.9133 248.147 99.596C246.227 100.236 244.605 101.111 243.283 102.22L240.723 97.612C242.472 96.204 244.563 95.1373 246.995 94.412C249.469 93.644 252.051 93.26 254.739 93.26C259.389 93.26 262.973 94.3907 265.491 96.652C268.008 98.9133 269.267 102.369 269.267 107.02V127.5H263.443ZM252.307 127.884C249.789 127.884 247.571 127.457 245.651 126.604C243.773 125.751 242.323 124.577 241.299 123.084C240.275 121.548 239.763 119.82 239.763 117.9C239.763 116.065 240.189 114.401 241.043 112.908C241.939 111.415 243.368 110.22 245.331 109.324C247.336 108.428 250.024 107.98 253.395 107.98H264.147V112.396H253.651C250.579 112.396 248.509 112.908 247.443 113.932C246.376 114.956 245.843 116.193 245.843 117.644C245.843 119.308 246.504 120.652 247.827 121.676C249.149 122.657 250.984 123.148 253.331 123.148C255.635 123.148 257.64 122.636 259.347 121.612C261.096 120.588 262.355 119.095 263.123 117.132L264.339 121.356C263.528 123.361 262.099 124.961 260.051 126.156C258.003 127.308 255.421 127.884 252.307 127.884ZM280.637 127.5V80.012H286.781V127.5H280.637Z" fill="#F0F0F0"/>
</g>
<defs>
<filter id="filter0_d_5_11" x="0.335999" y="0.0119934" width="392.728" height="135.872" filterUnits="userSpaceOnUse" color-interpolation-filters="sRGB">
<feFlood flood-opacity="0" result="BackgroundImageFix"/>
<feColorMatrix in="SourceAlpha" type="matrix" values="0 0 0 0 0 0 0 0 0 0 0 0 0 0 0 0 0 0 127 0" result="hardAlpha"/>
<feOffset dy="4"/>
<feGaussianBlur stdDeviation="2"/>
<feComposite in2="hardAlpha" operator="out"/>
<feColorMatrix type="matrix" values="0 0 0 0 0 0 0 0 0 0 0 0 0 0 0 0 0 0 0.25 0"/>
<feBlend mode="normal" in2="BackgroundImageFix" result="effect1_dropShadow_5_11"/>
<feBlend mode="normal" in="SourceGraphic" in2="effect1_dropShadow_5_11" result="shape"/>
</filter>
</defs>
</svg>
